<svg xmlns="http://www.w3.org/2000/svg" width="1280" height="800" viewBox="0 0 1280 800" role="img">
<style>
text{font-family:Inter,Arial,'Noto Sans CJK SC',sans-serif;fill:#172033}
.title{font-size:26px;font-weight:700}
.subtitle{font-size:14px;fill:#64748b}
.panel{font-size:16px;font-weight:700}
.axis{font-size:12px;fill:#64748b}
.value{font-size:12px;font-weight:600}
.note{font-size:12px;fill:#64748b}
</style>
<rect width="1280" height="800" fill="#ffffff"/>
<text x="55.0" y="45.0" class="title" text-anchor="start">Phase 4 dual-replica routing comparison</text>
<text x="55.0" y="70.0" class="subtitle" text-anchor="start">Qwen3-8B BF16 · c16/mns8 · 256/128 tokens · two A10 · median of 3 repeats · 100 measured requests/repeat</text>
<text x="85.0" y="116.0" class="panel" text-anchor="start">Output throughput (tok/s)</text>
<line x1="85.0" y1="350.0" x2="585.0" y2="350.0" stroke="#d8dee9" stroke-width="1"/>
<text x="75.0" y="354.0" class="axis" text-anchor="end">0</text>
<line x1="85.0" y1="295.0" x2="585.0" y2="295.0" stroke="#d8dee9" stroke-width="1"/>
<text x="75.0" y="299.0" class="axis" text-anchor="end">125</text>
<line x1="85.0" y1="240.0" x2="585.0" y2="240.0" stroke="#d8dee9" stroke-width="1"/>
<text x="75.0" y="244.0" class="axis" text-anchor="end">250</text>
<line x1="85.0" y1="185.0" x2="585.0" y2="185.0" stroke="#d8dee9" stroke-width="1"/>
<text x="75.0" y="189.0" class="axis" text-anchor="end">375</text>
<line x1="85.0" y1="130.0" x2="585.0" y2="130.0" stroke="#d8dee9" stroke-width="1"/>
<text x="75.0" y="134.0" class="axis" text-anchor="end">500</text>
<rect x="121.7" y="203.5" width="93.3" height="146.5" rx="4" fill="#2563eb" opacity="1"/>
<text x="168.3" y="196.5" class="value" text-anchor="middle">333</text>
<text x="168.3" y="370.0" class="axis" text-anchor="middle">Kubernetes</text>
<text x="168.3" y="384.0" class="axis" text-anchor="middle">Service</text>
<rect x="288.3" y="202.7" width="93.3" height="147.3" rx="4" fill="#0d9488" opacity="1"/>
<text x="335.0" y="195.7" class="value" text-anchor="middle">335</text>
<text x="335.0" y="370.0" class="axis" text-anchor="middle">Direct fixed</text>
<text x="335.0" y="384.0" class="axis" text-anchor="middle">8 / 8</text>
<rect x="455.0" y="202.4" width="93.3" height="147.6" rx="4" fill="#d97706" opacity="1"/>
<text x="501.7" y="195.4" class="value" text-anchor="middle">335</text>
<text x="501.7" y="370.0" class="axis" text-anchor="middle">Least-inflight</text>
<text x="501.7" y="384.0" class="axis" text-anchor="middle">proxy</text>
<text x="685.0" y="116.0" class="panel" text-anchor="start">P95 TTFT (ms)</text>
<line x1="685.0" y1="350.0" x2="1185.0" y2="350.0" stroke="#d8dee9" stroke-width="1"/>
<text x="675.0" y="354.0" class="axis" text-anchor="end">0</text>
<line x1="685.0" y1="295.0" x2="1185.0" y2="295.0" stroke="#d8dee9" stroke-width="1"/>
<text x="675.0" y="299.0" class="axis" text-anchor="end">2500</text>
<line x1="685.0" y1="240.0" x2="1185.0" y2="240.0" stroke="#d8dee9" stroke-width="1"/>
<text x="675.0" y="244.0" class="axis" text-anchor="end">5000</text>
<line x1="685.0" y1="185.0" x2="1185.0" y2="185.0" stroke="#d8dee9" stroke-width="1"/>
<text x="675.0" y="189.0" class="axis" text-anchor="end">7500</text>
<line x1="685.0" y1="130.0" x2="1185.0" y2="130.0" stroke="#d8dee9" stroke-width="1"/>
<text x="675.0" y="134.0" class="axis" text-anchor="end">10000</text>
<rect x="721.7" y="229.7" width="93.3" height="120.3" rx="4" fill="#2563eb" opacity="1"/>
<text x="768.3" y="222.7" class="value" text-anchor="middle">5469</text>
<text x="768.3" y="370.0" class="axis" text-anchor="middle">Kubernetes</text>
<text x="768.3" y="384.0" class="axis" text-anchor="middle">Service</text>
<rect x="888.3" y="338.5" width="93.3" height="11.5" rx="4" fill="#0d9488" opacity="1"/>
<text x="935.0" y="331.5" class="value" text-anchor="middle">525</text>
<text x="935.0" y="370.0" class="axis" text-anchor="middle">Direct fixed</text>
<text x="935.0" y="384.0" class="axis" text-anchor="middle">8 / 8</text>
<rect x="1055.0" y="340.0" width="93.3" height="10.0" rx="4" fill="#d97706" opacity="1"/>
<text x="1101.7" y="333.0" class="value" text-anchor="middle">456</text>
<text x="1101.7" y="370.0" class="axis" text-anchor="middle">Least-inflight</text>
<text x="1101.7" y="384.0" class="axis" text-anchor="middle">proxy</text>
<line x1="685.0" y1="336.8" x2="1185.0" y2="336.8" stroke="#dc2626" stroke-width="1.5" stroke-dasharray="7 5"/>
<text x="688.0" y="330.8" class="axis" text-anchor="start" fill="#dc2626">Short SLO 600 ms</text>
<text x="85.0" y="451.0" class="panel" text-anchor="start">P95 TPOT (ms)</text>
<line x1="85.0" y1="685.0" x2="585.0" y2="685.0" stroke="#d8dee9" stroke-width="1"/>
<text x="75.0" y="689.0" class="axis" text-anchor="end">0.0</text>
<line x1="85.0" y1="630.0" x2="585.0" y2="630.0" stroke="#d8dee9" stroke-width="1"/>
<text x="75.0" y="634.0" class="axis" text-anchor="end">25.0</text>
<line x1="85.0" y1="575.0" x2="585.0" y2="575.0" stroke="#d8dee9" stroke-width="1"/>
<text x="75.0" y="579.0" class="axis" text-anchor="end">50.0</text>
<line x1="85.0" y1="520.0" x2="585.0" y2="520.0" stroke="#d8dee9" stroke-width="1"/>
<text x="75.0" y="524.0" class="axis" text-anchor="end">75.0</text>
<line x1="85.0" y1="465.0" x2="585.0" y2="465.0" stroke="#d8dee9" stroke-width="1"/>
<text x="75.0" y="469.0" class="axis" text-anchor="end">100.0</text>
<rect x="121.7" y="591.5" width="93.3" height="93.5" rx="4" fill="#2563eb" opacity="1"/>
<text x="168.3" y="584.5" class="value" text-anchor="middle">42.5</text>
<text x="168.3" y="705.0" class="axis" text-anchor="middle">Kubernetes</text>
<text x="168.3" y="719.0" class="axis" text-anchor="middle">Service</text>
<rect x="288.3" y="591.0" width="93.3" height="94.0" rx="4" fill="#0d9488" opacity="1"/>
<text x="335.0" y="584.0" class="value" text-anchor="middle">42.7</text>
<text x="335.0" y="705.0" class="axis" text-anchor="middle">Direct fixed</text>
<text x="335.0" y="719.0" class="axis" text-anchor="middle">8 / 8</text>
<rect x="455.0" y="591.6" width="93.3" height="93.4" rx="4" fill="#d97706" opacity="1"/>
<text x="501.7" y="584.6" class="value" text-anchor="middle">42.4</text>
<text x="501.7" y="705.0" class="axis" text-anchor="middle">Least-inflight</text>
<text x="501.7" y="719.0" class="axis" text-anchor="middle">proxy</text>
<line x1="85.0" y1="575.0" x2="585.0" y2="575.0" stroke="#dc2626" stroke-width="1.5" stroke-dasharray="7 5"/>
<text x="88.0" y="569.0" class="axis" text-anchor="start" fill="#dc2626">Short SLO 50 ms</text>
<text x="685.0" y="451.0" class="panel" text-anchor="start">P95 E2E (ms)</text>
<line x1="685.0" y1="685.0" x2="1185.0" y2="685.0" stroke="#d8dee9" stroke-width="1"/>
<text x="675.0" y="689.0" class="axis" text-anchor="end">0</text>
<line x1="685.0" y1="630.0" x2="1185.0" y2="630.0" stroke="#d8dee9" stroke-width="1"/>
<text x="675.0" y="634.0" class="axis" text-anchor="end">5000</text>
<line x1="685.0" y1="575.0" x2="1185.0" y2="575.0" stroke="#d8dee9" stroke-width="1"/>
<text x="675.0" y="579.0" class="axis" text-anchor="end">10000</text>
<line x1="685.0" y1="520.0" x2="1185.0" y2="520.0" stroke="#d8dee9" stroke-width="1"/>
<text x="675.0" y="524.0" class="axis" text-anchor="end">15000</text>
<line x1="685.0" y1="465.0" x2="1185.0" y2="465.0" stroke="#d8dee9" stroke-width="1"/>
<text x="675.0" y="469.0" class="axis" text-anchor="end">20000</text>
<rect x="721.7" y="566.8" width="93.3" height="118.2" rx="4" fill="#2563eb" opacity="1"/>
<text x="768.3" y="559.8" class="value" text-anchor="middle">10742</text>
<text x="768.3" y="705.0" class="axis" text-anchor="middle">Kubernetes</text>
<text x="768.3" y="719.0" class="axis" text-anchor="middle">Service</text>
<rect x="888.3" y="624.0" width="93.3" height="61.0" rx="4" fill="#0d9488" opacity="1"/>
<text x="935.0" y="617.0" class="value" text-anchor="middle">5544</text>
<text x="935.0" y="705.0" class="axis" text-anchor="middle">Direct fixed</text>
<text x="935.0" y="719.0" class="axis" text-anchor="middle">8 / 8</text>
<rect x="1055.0" y="624.2" width="93.3" height="60.8" rx="4" fill="#d97706" opacity="1"/>
<text x="1101.7" y="617.2" class="value" text-anchor="middle">5527</text>
<text x="1101.7" y="705.0" class="axis" text-anchor="middle">Least-inflight</text>
<text x="1101.7" y="719.0" class="axis" text-anchor="middle">proxy</text>
<line x1="685.0" y1="619.0" x2="1185.0" y2="619.0" stroke="#dc2626" stroke-width="1.5" stroke-dasharray="7 5"/>
<text x="688.0" y="613.0" class="axis" text-anchor="start" fill="#dc2626">Short SLO 6000 ms</text>
<text x="640.0" y="786.0" class="note" text-anchor="middle">Least-inflight matches direct 8/8 throughput within run-to-run noise and restores the pre-registered Short SLO; fixed synthetic workload only.</text>
</svg>
